<svg xmlns="http://www.w3.org/2000/svg" data-name="Layer 1" viewBox="0 0 850.39 595.28"><path fill="#d5eaf5" d="M254.42,529.71c0,4.86-50.77,8.79-113.39,8.79s-113.38-3.93-113.38-8.79,50.76-8.79,113.38-8.79S254.42,524.86,254.42,529.71Z"/><path fill="#d5eaf5" d="M361.78,531.48c0,3.88-25.45,7-56.84,7s-56.84-3.14-56.84-7,25.45-7,56.84-7S361.78,527.6,361.78,531.48Z"/><ellipse cx="737.12" cy="528.06" fill="#d5eaf5" rx="85.88" ry="7.14"/><ellipse cx="414.94" cy="500.63" fill="#d5eaf5" rx="148.69" ry="14.43"/><path fill="#ff9a2e" d="M110.66,416.68c-3.39-.46-8-3.59-9.38-5-3-3.05,3.71-17.65,6.42-20.95l75.89-92.4a8.3,8.3,0,0,1,9-2.65,8.56,8.56,0,0,1,3.64,2.34l33.1,33.23S316.07,210.37,324,206.12c4-2.13,6-1.38,7.9-.35,3.5,1.91,7.79,8.78,9.16,11.11l67.69,112.34L550.35,141.73c1.92-2.36,10-6.12,15.78-5.33a12.36,12.36,0,0,1,10.42,9L616.86,270.5,781,94.62A8.32,8.32,0,1,1,793.14,106L613.87,296.83c-2,2.16-8.75,6.5-14.24,2.82A16.14,16.14,0,0,1,594,292l-29-128.41L414.07,349a8.32,8.32,0,0,1-13.62-1L332.68,233,229.41,354.53a8.62,8.62,0,0,1-6.1,3c-4.57.31-9.09-4.16-10.73-5.87l-21.39-23.17-73,85.23A8.34,8.34,0,0,1,110.66,416.68Z"/><polygon fill="#ff9a2e" points="776.94 163.13 806 88 761.68 128.99 765.36 163.18 776.94 163.13"/><polygon fill="#ff9a2e" points="761.68 128.99 806 88 797.26 82.33 728.72 113.46 761.68 128.99"/><path fill="#ffcb48" d="M105.43,413.49a8.18,8.18,0,0,1-4.15-1.81,8.31,8.31,0,0,1-1.17-11.7l77.79-94.91a8.3,8.3,0,0,1,12.43-.48l26.89,28,98.15-117.93a8.32,8.32,0,0,1,13.56,1.1l67.7,114.8,153-188a8.32,8.32,0,0,1,14.37,2.7l40.81,126.62L768.9,96a8.32,8.32,0,1,1,12.16,11.35L607.29,293.54a8.31,8.31,0,0,1-14-3.12L552.84,164.91,402,350.34a8.31,8.31,0,0,1-13.61-1L320.6,234.39l-96.55,116a8.32,8.32,0,0,1-12.4.43l-26.83-28L113,410.52A8.31,8.31,0,0,1,105.43,413.49Z"/><polygon fill="#ffcb48" points="765.36 163.18 797.26 82.33 749.6 130.34 765.36 163.18"/><polygon fill="#ffcb48" points="749.6 130.34 797.26 82.33 716.64 114.81 749.6 130.34"/><path fill="#357a5f" d="M381.06,245c-1.28-.87-34.85-69.49-34.84-72.92s19.76-9.75,42,4.94c0,0,11.12,4.09,23.18-9s27.42.7,33.36,10.15,16.69-3.27,29.54-3.63c4.94-.13,8.17.48,10.27,1.28a4,4,0,0,1,1.88,6l-33.3,63.61Z"/><path fill="#357a5f" d="M538.47,380.27c-25.86-89-85.54-133.45-85.54-133.45l-73.29-.39S319.5,290.22,292.69,379c-20.85,69-6,97.21,19.05,111.07,11.08,6.12,27.16,11.4,39.82,11.47l127,.67c13.12.07,26.58-4.59,37-9.64C542.35,479.49,559.3,452,538.47,380.27Z"/><path fill="#ff9a2e" d="M453.11,249.8h0l-73.6-.39a4.45,4.45,0,0,1,0-8.9h0l73.6.39a4.45,4.45,0,0,1,0,8.9Z"/><path fill="#ff9a2e" d="M452,315.2c0-14.47-12.71-28.53-27.37-27.95-11.45.45-31.39,6-35,18.7-2.18,7.62,1.22,16.2,5.43,22.49,4.35,6.5,10.26,9.61,17.58,11.92,13.16,4.16,41.84,10,34.34,30.33-4.78,13-19.68,13.53-31.07,10s-21.28-13.48-19.14-26.15c.41-2.39-8.06-.92-8.45,1.38-3.42,20.21,18.15,30.3,35.08,30.53,14.51.2,38.78-9.54,32.3-28.44-5.49-16.05-26.56-17.39-39.93-22.49-8.44-3.22-13.7-9.74-16.63-18.22-2.77-8-1.95-15.92,5.51-20.81,7-4.6,17.49-7.79,25.13-3,7.85,4.88,13.71,14.78,13.71,24.06,0,1.73,8.54.42,8.54-2.29Z"/><path fill="#ff9a2e" d="M423.76,387.58h-.46c-9.53-.13-23.44-3.61-31.25-13a22.43,22.43,0,0,1-4.94-18.89c.44-2.62,5.9-3.91,8.51-3.47,1.88.32,2.37,1.48,2.21,2.47-2.12,12.49,8,21.64,18.34,24.86,10.85,3.39,25.13,3,29.66-9.28,1.6-4.34,1.55-8.11-.16-11.52-4.39-8.74-19.19-13.09-29-16-1.62-.48-3.13-.92-4.47-1.35-6.22-2-13.24-5-18.2-12.37-2.58-3.87-8.31-13.9-5.57-23.45,3.82-13.34,24.16-19.06,36.08-19.53,6.85-.27,13.63,2.47,19.1,7.73a30.41,30.41,0,0,1,9.46,21.37h0c0,3-5,4.22-7.72,4.22h0c-2.81,0-3.11-1.35-3.11-1.93,0-8.64-5.54-18.35-13.17-23.09-7.31-4.54-17.44-1.2-23.89,3-7.94,5.21-7.13,13.46-5.05,19.47,3,8.75,8.39,14.64,16,17.53,3.11,1.19,6.64,2.16,10.37,3.2,12.11,3.35,25.85,7.16,30.24,20,2.09,6.09,1.33,11.68-2.25,16.62C448.14,383,434,387.58,423.76,387.58Zm-29.29-33.13a10.28,10.28,0,0,0-2.9.46,4.06,4.06,0,0,0-2.2,1.19,20.23,20.23,0,0,0,4.44,17c7.32,8.77,20.48,12,29.52,12.15,9.74.15,23.31-4.17,29.27-12.39,3.12-4.3,3.77-9.19,1.94-14.53-4-11.68-16.55-15.16-28.68-18.52-3.79-1-7.36-2-10.58-3.26-8.23-3.14-14-9.51-17.3-18.93-3.32-9.58-1.2-17.45,6-22.14s18.14-8.17,26.36-3.06,14.08,15.21,14.25,24.62A10,10,0,0,0,450,316c.59-.34.81-.65.81-.77A28.09,28.09,0,0,0,442,295.48a23.85,23.85,0,0,0-17.42-7.09c-12.11.48-30.66,6.35-34,17.88-2.46,8.62,2.87,17.93,5.28,21.53,3.68,5.49,8.6,8.82,17,11.47,1.33.42,2.82.86,4.42,1.33,10.79,3.17,25.55,7.51,30.39,17.14,2,3.95,2.07,8.44.26,13.35-5.09,13.78-20.68,14.36-32.49,10.68-11.18-3.49-22.14-13.48-20-27.21A3.74,3.74,0,0,0,394.47,354.45Z"/><path fill="#ff9a2e" d="M409.25,279q-.35,63.26-.68,126.49c0,1.4,5.68.45,5.69-1.52q.35-63.26.68-126.49c0-1.4-5.68-.45-5.69,1.52Z"/><path fill="#ff9a2e" d="M410,407.26h0c-2.43,0-2.55-1.51-2.55-1.82L408.1,279h0c0-2.36,3.51-3.33,5.41-3.33h0c2.44,0,2.56,1.51,2.55,1.82l-.67,126.48C415.4,406.29,411.9,407.26,410,407.26Zm-.28-2.3a5.68,5.68,0,0,0,2.45-.44c.7-.29.93-.57.95-.63l.67-126a5.72,5.72,0,0,0-2.46.44,2,2,0,0,0-.94.62Z"/><path fill="#ff9a2e" d="M424.35,276.8Q424,340,423.67,403.28c0,1.4,5.68.46,5.69-1.52q.34-63.24.68-126.49c0-1.4-5.68-.45-5.69,1.53Z"/><path fill="#ff9a2e" d="M425.1,405.1h0c-2.43,0-2.55-1.52-2.55-1.82l.68-126.49h0a2.74,2.74,0,0,1,1.66-2.37c1.54-.88,4.21-1.32,5.47-.58a1.61,1.61,0,0,1,.85,1.44l-.67,126.48C430.5,404.13,427,405.1,425.1,405.1Zm-.28-2.31a5.83,5.83,0,0,0,2.46-.44c.69-.28.92-.57.94-.63l.67-126a6,6,0,0,0-2.46.44,2.14,2.14,0,0,0-.94.62Z"/><path fill="#295a6e" d="M599.78,529.47a3.06,3.06,0,0,1-3.06-3.06V437.1a3.06,3.06,0,1,1,6.12,0v89.31A3.06,3.06,0,0,1,599.78,529.47Z"/><path fill="#295a6e" d="M633.6,466.24s-1.56,13.51-10.74,20.14-22.49,3.86-22.49,3.86,1.56-13.51,10.74-20.13S633.6,466.24,633.6,466.24Z"/><path fill="#295a6e" d="M599.42,476.42s-13.56-1.08-20.51-10-4.66-22.34-4.66-22.34,13.56,1.08,20.51,10S599.42,476.42,599.42,476.42Z"/><ellipse cx="600.37" cy="398.81" fill="#ffcb48" rx="42.22" ry="43.46"/><path fill="#ff9a2e" d="M600.37,438.63c-21.36,0-38.73-17.87-38.73-39.82S579,359,600.37,359s38.73,17.86,38.73,39.82S621.73,438.63,600.37,438.63Zm0-76.58c-19.67,0-35.67,16.49-35.67,36.76s16,36.76,35.67,36.76S636,419.08,636,398.81,620,362.05,600.37,362.05Z"/><path fill="#ff9a2e" d="M615.48,386a16,16,0,0,0-7.2-12.41c-3.34-2.1-7.31-1.84-11-1-3.91.88-8.1,2.48-11.12,5.22-3.64,3.3-3.3,8.09-1.37,12.29a15.34,15.34,0,0,0,9.78,8.57c5.13,1.73,10.74,2.34,15,6,7.32,6.16,1.61,15.77-7.3,15.18-7.43-.5-15.59-5.41-14.44-13.89.18-1.38-4.6-.5-4.77.78-1.64,12.1,12.65,16.67,22.3,15,4.48-.79,9.17-3,11.38-7.19,2.45-4.66.44-9.37-3.58-12.28s-9-3.76-13.64-5.19c-6-1.84-10.67-6.17-11.34-12.83-.64-6.38,6.57-10.77,12.5-10,5.75.75,9.82,7.83,10,13.12,0,1,4.86.22,4.82-1.29Z"/><path fill="#ff9a2e" d="M592.69,368.26v63.51c0,1.19,4.82.38,4.82-1.29V367c0-1.19-4.82-.38-4.82,1.29Z"/><path fill="#ff9a2e" d="M600.27,367.14v63.5c0,1.19,4.81.38,4.81-1.29v-63.5c0-1.2-4.81-.39-4.81,1.29Z"/><path fill="#295a6e" d="M631.43,529.47a1,1,0,0,1-1-1V498.2a1,1,0,1,1,2.06,0v30.24A1,1,0,0,1,631.43,529.47Z"/><path fill="#295a6e" d="M642.88,508.06s-.53,4.58-3.63,6.82-7.62,1.31-7.62,1.31.53-4.57,3.64-6.82S642.88,508.06,642.88,508.06Z"/><path fill="#295a6e" d="M631.31,511.51s-4.59-.37-6.94-3.39-1.58-7.57-1.58-7.57,4.59.37,6.94,3.39S631.31,511.51,631.31,511.51Z"/><ellipse cx="631.63" cy="485.23" fill="#ffcb48" rx="14.3" ry="14.71"/><path fill="#ff9a2e" d="M631.63,498.71a13.49,13.49,0,1,1,13.11-13.48A13.32,13.32,0,0,1,631.63,498.71Zm0-25.93a12.46,12.46,0,1,0,12.08,12.45A12.29,12.29,0,0,0,631.63,472.78Z"/><path fill="#295a6e" d="M574.33,529.47a.76.76,0,0,1-.76-.77V506.3a.76.76,0,0,1,.76-.77.77.77,0,0,1,.77.77v22.4A.77.77,0,0,1,574.33,529.47Z"/><path fill="#295a6e" d="M582.82,513.61s-.4,3.39-2.7,5-5.64,1-5.64,1,.39-3.39,2.69-5S582.82,513.61,582.82,513.61Z"/><path fill="#295a6e" d="M574.24,516.16s-3.4-.27-5.14-2.51-1.17-5.61-1.17-5.61,3.4.28,5.14,2.52S574.24,516.16,574.24,516.16Z"/><ellipse cx="574.48" cy="496.69" fill="#ffcb48" rx="10.59" ry="10.9"/><path fill="#ff9a2e" d="M574.48,506.68a10,10,0,1,1,9.72-10A9.87,9.87,0,0,1,574.48,506.68Zm0-19.21a9.22,9.22,0,1,0,8.95,9.22A9.1,9.1,0,0,0,574.48,487.47Z"/><path fill="#3b2b5b" d="M722.53,407c0,.29-7.44,9.9-9,17.83-4.76,23.87,1,85.71,2.7,98.35.22,1.71,3.71-.31,3.81-2.43.62-13.33,16.66-84.71,16.66-84.71l48,89.18,3.89-.73s-11.51-38.16-18.08-59c-4.37-13.85-9.84-37.61-24.73-55.4C741.91,409.21,728.55,406.47,722.53,407Z"/><path fill="#3b2b5b" d="M709.38,527.57c0-.6,2.81-1.93,4.71-2.59-.56.39-1.11.93-.2,1.16,1.32.34,4.2-.19,5-1.18a6.1,6.1,0,0,1,.47,2.4C719.4,528.25,709.51,529.28,709.38,527.57Z"/><path fill="#ff97a6" d="M713.89,526.14c-.91-.23-.36-.77.2-1.16,1.17-.41,2.16-.71,2.38-.82a1.39,1.39,0,0,0,.71-.83l.6-.15s1,1.57,1.13,1.78C718.09,526,715.21,526.48,713.89,526.14Z"/><path fill="#3b2b5b" d="M795.94,528.36c0-.89-2.88-1.78-4.79-2.34.57.36,1.14.87.25,1.14-1.31.4-4.19,0-5-.93a6.18,6.18,0,0,0-.36,2.4C786,529.52,795.85,530.06,795.94,528.36Z"/><path fill="#ff97a6" d="M791.4,527.16c.89-.27.32-.78-.25-1.14-1.19-.35-2.19-.6-2.41-.7a1.4,1.4,0,0,1-.75-.79l-.6-.12s-.95,1.61-1,1.82C787.21,527.18,790.09,527.56,791.4,527.16Z"/><path fill="#30193b" d="M786.37,524.21l2.23-.42s-11.51-38.16-18.08-59c-4.37-13.85-9.84-37.61-24.73-55.4-1.51-.33-9.12-.1-12.53-.71-2.84-.5,15.24,28.44,30.18,59.33A566.49,566.49,0,0,1,786.37,524.21Z"/><path fill="#aacbe8" d="M727.35,378.13c3.19-1.86,11.91-3,26.37,2.43a15.41,15.41,0,0,1,4.11,2.33c-1.78,4.94-.86,12-.86,12-4.55,6.77-8.22,16.61-8.45,18.3-5.25,1-24.25-3.61-26.41-5.36a51.47,51.47,0,0,1,.64-15.17A85,85,0,0,1,727.35,378.13Z"/><path fill="#9abde2" d="M751.05,379.6c1.43.55,5.09,1.65,6.78,3.29-1.78,4.94-.86,12-.86,12-4.55,6.77-8.4,17.13-8.63,18.81-2.62.52-14.15-2.14-14.15-2.14s8.5-5.62,12.81-14.11C751.45,388.71,750.54,379.41,751.05,379.6Z"/><path fill="#aacbe8" d="M729.41,383.29s-7.79,8-16.11,16.21c-2.6,2.57-7.55,9.07-14.62,11C686.6,413.85,681,408,681,408s-1.21-6.31,2.57-7.73,23.46-6,23.46-6,13.05-11.1,16.64-13.73c1.65-1.21,3.59-2.42,3.59-2.42Z"/><path fill="#ff97a6" d="M747.15,373.51s-.52,5.63-1,6.16-1.86,1.06-2.26-.48,1.36-6.14,1.36-6.14Z"/><path fill="#c95d77" d="M746.66,377.59a2.56,2.56,0,0,1-2.64-.4,26.06,26.06,0,0,1,.81-2.93l2.32-.92C747.06,374.15,746.8,376.66,746.66,377.59Z"/><path fill="#c43b72" d="M743.64,363s-3.64-5.22-8-1.08c0,0-2,1.21-.14,5.4s.6,6.93-1.35,6.32c0,0,.15,2.19,4.71.85s5.36-6.45,5.36-6.45l5,5.5s6.77-2.44,2.71-9c-.82-1.31-2.91-3.64-5.22-3.16A4.9,4.9,0,0,0,743.64,363Z"/><path fill="#ff97a6" d="M740.75,374.1a17,17,0,0,1-1.3-4.46,2.74,2.74,0,0,1,2.14-3.26c2.31-.43,4.88-.77,5.66-.48,1.24.45,1.63,2,2,3.15a8.76,8.76,0,0,1,0,4.46,5.37,5.37,0,0,1-3.09,2.53C743,376.76,741.94,376.17,740.75,374.1Z"/><path fill="#c43b72" d="M750.7,370.55c.11-.12-6.48-1.56-8.49-4.8s4.76-1.48,4.76-1.48Z"/><path fill="#c43b72" d="M747.82,363.66s-1.65-6.48,2.56-8.87c2.48-1.41,6.64-1.56,8,3.89,0,0,9.35-2.74,12.35,4.85s-3.6,10-3.6,10,2.53.57.2,5.19c-2.06,4.1,1.09,4.37,1.78,4.85a.18.18,0,0,1,0,.3c-1,.47-9.47,1.83-11.68-3-1.74-3.8-.21-5.86.1-7a3.16,3.16,0,0,0-1.44-3.6c-.57-.33-2-.95-2.47-2s.09-2.62.92-4.8-3.54-2.8-5,.22S747.82,363.66,747.82,363.66Z"/><polygon fill="#295a6e" points="725.21 428.9 690.52 439.56 682.15 397.79 708.66 389.64 725.21 428.9"/><path fill="#295a6e" d="M725.26,429.07c.37,1.21-7.09,4.58-16.67,7.52s-17.65,4.35-18,3.14,7.09-4.58,16.67-7.53S724.89,427.85,725.26,429.07Z"/><path fill="#295a6e" d="M656.86,414.46s25.27,7.1,32.13,14.48l-1.42-11.74s-13.39,1.93-28.77-5.42Z"/><path fill="#295a6e" d="M652.3,417.87s4.72-.12,7-3.95-3.74-8.17-3.74-8.17S652.37,408.81,652.3,417.87Z"/><path fill="#295a6e" d="M719.1,425.52a5.24,5.24,0,0,1-2.27-.52c-6.61-3.19-8.32-21.72-8.69-27.33l-.07-1.07.78-.74c.45-.43.56-.53,14.91-6.08a5.72,5.72,0,0,1,7.79,5.5c-.31,10.64-2.11,24.31-8.92,29A6.19,6.19,0,0,1,719.1,425.52ZM712.85,399c.81,9.81,3.22,20.55,6,21.88.14.07.42.21,1.18-.33,4-2.74,6.56-12.23,7-25.38a1.14,1.14,0,0,0-1.55-1.09C717.93,397,714.45,398.33,712.85,399Z"/><path fill="#ff97a6" d="M732.65,407.14a19.6,19.6,0,0,1-4.06-.68c-1.94-.79-2.26-3-1.78-2.71a2.93,2.93,0,0,0,1.8.2c.3-.2-.45-.58-.14-1s1,.6,1.59.84S734,404.42,732.65,407.14Z"/><path fill="#9abde2" d="M757.11,382.3c3.42,2.1,3.35,5.48,4.86,10.86,1.9,6.79,4.95,13.8.87,21.14-3,5.43-25.2,5.43-29.83-3.06a8.76,8.76,0,0,1-.45-5.73,2,2,0,0,1,2.3-1.52l22.2,4.64-3.49-15.15A49.11,49.11,0,0,1,757.11,382.3Z"/><path fill="#ff97a6" d="M682.93,401.52s1.86-.53,2.42,0c.3.29-.93.37-.93.37s1.3,0,1.32.45-.77.48-.77.48.46,0,.45.21c0,.4-1,.64-1,.64s1,.23.59.56-1.5,0-1.5,0S682.15,402.41,682.93,401.52Z"/><path fill="#e54c91" d="M735.64,373.34a1.5,1.5,0,0,0,.61-1.12,4.79,4.79,0,0,0,0-1.31,14.31,14.31,0,0,0-.6-2.57c-.27-.84-.63-1.65-.95-2.52a4.08,4.08,0,0,1-.14-2.95,5.62,5.62,0,0,1,1.87-2.25,4.5,4.5,0,0,1,2.83-1,4.85,4.85,0,0,1,2.81,1,8.59,8.59,0,0,1,2,2.06l-.93,0a3.28,3.28,0,0,1,1-.88,5.3,5.3,0,0,1,1.08-.51,9.15,9.15,0,0,1,2.23-.47l-.43.53a9.56,9.56,0,0,1,.26-2.63,7.26,7.26,0,0,1,1.05-2.4,4.9,4.9,0,0,1,2-1.69,6.22,6.22,0,0,1,2.45-.63,7.2,7.2,0,0,0-2.29.92,4.79,4.79,0,0,0-1.63,1.72,6.59,6.59,0,0,0-.79,2.24,8.6,8.6,0,0,0-.07,2.37.47.47,0,0,1-.41.52h0a8.39,8.39,0,0,0-2,.48,4.66,4.66,0,0,0-.86.45,2.49,2.49,0,0,0-.62.55.58.58,0,0,1-.8.15l-.13-.13c-1-1.3-2.43-2.53-3.94-2.57a3.54,3.54,0,0,0-2.15.77,4.68,4.68,0,0,0-1.62,1.77c-.64,1.37.4,3.17.78,4.92a11.87,11.87,0,0,1,.36,2.72,5.32,5.32,0,0,1-.17,1.38A1.53,1.53,0,0,1,735.64,373.34Z"/><path fill="#30193b" d="M272.67,532.25c3.12-.87,0-3.64-.77-5.36.05.59.05,1.35-.61.86-1-.73-2.17-3-2-4.08a5.45,5.45,0,0,0-1.87,1C266.87,525.1,272,532.43,272.67,532.25Z"/><path fill="#ff97a6" d="M271.29,527.75c.66.49,1.24.36.68-.72a9.3,9.3,0,0,1-.76-2.11,1.71,1.71,0,0,1,.41-1.18l-.55-.79s-1.53.68-1.73.72C269.12,524.77,270.34,527,271.29,527.75Z"/><path fill="#30193b" d="M284.91,420.06c-7.09,7.57,1.29,45,1.29,45s-16.36,57.18-16,57.86l3.39,2.3c.1.21,22.47-35.44,28.31-51.71,2.4-6.68,10.92-27.76,9.86-44.93-.41-6.57-3.65-22.61-3.65-22.61a25.62,25.62,0,0,0-12.74,4.83A74.35,74.35,0,0,0,284.91,420.06Z"/><path fill="#30193b" d="M340.27,529.94c0-3.24-3.5-1-5.37-.69.59.11,1.32.32.66.81-.95.73-3.44,1.3-4.44.79a5.3,5.3,0,0,0,.42,2.06C331.83,533.62,340.27,530.6,340.27,529.94Z"/><path fill="#ff97a6" d="M335.56,530.06c.66-.49.69-1.09-.51-.84a8.78,8.78,0,0,1-2.23.17c-.56,0-1-.72-1-.72l-.91.33s.24,1.65.23,1.85C332.12,531.36,334.61,530.79,335.56,530.06Z"/><path fill="#3b2b5b" d="M283,436.38c2.77,13.78,29,29.9,29,29.9s15.62,52.3,18.14,62c.19.73.68,1.32,1.39,1l2.17-.89a1,1,0,0,0,.51-.45c2-3.79-3.58-54.45-7.49-70.34-1.39-5.67-20-34.26-20-34.26s.08-16-1.11-17.33c-2.7-.07-8.09,6.15-15.79,4.92C288.26,410.68,280,421.28,283,436.38Z"/><path fill="#aacbe8" d="M276.61,381.92c2.85-2.53,7.29-4.15,8.19-4.53,3.75-1.6,10.63,2.74,14.49,8.2,3.65,5.16,8.79,20.41,8.79,20.41s-.86,2.17-7.83,5c-10.46,4.22-13.72,3.35-13.72,3.35a59.85,59.85,0,0,0-4.37-10.21c-1.71-3.27-3.9-5.77-7.11-11.43C274.5,391.72,273.25,384.88,276.61,381.92Z"/><path fill="#205363" d="M282.32,378.14A32.14,32.14,0,0,1,300.76,393c2.34,4,3.93,6.87,5,8.85a28.24,28.24,0,0,1,3.05,8.68c.9,5.09,2.36,13.44,2.79,16.64,0,0,7.43-5.12,8.11-7.57s-11.64-17-11.64-17-7.5-18.7-10.55-21.89S286.53,375.47,282.32,378.14Z"/><path fill="#ff9a2e" d="M290.18,370.65c4.53,16.19,18.8,26.16,32.27,25.51,2.93-.15,9.94-2.08,12-2.66,16.39-4.58,20.28-20.95,15.11-39.45S332,322.83,315.6,327.41a86.9,86.9,0,0,0-11.08,4.66C292.19,339.13,285.71,354.67,290.18,370.65Z"/><path fill="none" d="M311.69,390.56a.76.76,0,0,0,.48-.94.74.74,0,0,0-.89-.55l-6.63,1.85a34.65,34.65,0,0,1-5.19-4.26l7-2a.74.74,0,0,0,.48-.93.76.76,0,0,0-.89-.56l-7.75,2.17a35.93,35.93,0,0,1-3.6-4.71l7.52-2.1a.76.76,0,0,0,.48-.94.74.74,0,0,0-.89-.55l-7.95,2.22a37.85,37.85,0,0,1-3.06-6.77l8.31-2.32a.74.74,0,0,0,.47-.94.73.73,0,0,0-.89-.55l-8.35,2.33-.12-.41a37.41,37.41,0,0,1-1.39-8.73l7.73-2.17a.77.77,0,0,0-.41-1.48l-7.35,2.05a35.15,35.15,0,0,1,1.12-8.64l7.4-2.07a.76.76,0,0,0,.47-.94.74.74,0,0,0-.89-.55l-6.48,1.81a33.47,33.47,0,0,1,2.06-5l6.82-1.91a.74.74,0,0,0,.48-.93.76.76,0,0,0-.89-.56L293.48,343a30.57,30.57,0,0,1,11-10.95,86.9,86.9,0,0,1,11.08-4.66c16.39-4.58,28.77,8.13,33.95,26.64s1.28,34.87-15.11,39.45c-2.05.58-9.06,2.51-12,2.66a29.23,29.23,0,0,1-16-4.13Z"/><path fill="#ef7f18" d="M297,358.82a.74.74,0,0,1-.48.93l-7.73,2.17c0-.54,0-1.07,0-1.6l7.35-2.05A.74.74,0,0,1,297,358.82Z"/><path fill="#ef7f18" d="M297.75,348.67a.76.76,0,0,1-.47.94l-7.4,2.07c.15-.59.32-1.17.5-1.75l6.48-1.81A.74.74,0,0,1,297.75,348.67Z"/><path fill="#ef7f18" d="M299.74,342.07a.74.74,0,0,1-.48.93l-6.82,1.91c.32-.64.67-1.28,1-1.89l5.37-1.51A.76.76,0,0,1,299.74,342.07Z"/><path fill="#ef7f18" d="M299.54,369.28a.74.74,0,0,1-.47.94l-8.31,2.32c-.16-.49-.31-1-.46-1.48l8.35-2.33A.73.73,0,0,1,299.54,369.28Z"/><path fill="#ef7f18" d="M302.66,377.64a.76.76,0,0,1-.48.94l-7.52,2.1c-.29-.45-.57-.9-.84-1.37l7.95-2.22A.74.74,0,0,1,302.66,377.64Z"/><path fill="#ef7f18" d="M306.9,383.78a.74.74,0,0,1-.48.93l-7,2c-.41-.41-.81-.84-1.2-1.27l7.75-2.17A.76.76,0,0,1,306.9,383.78Z"/><path fill="#ef7f18" d="M312.17,389.62a.76.76,0,0,1-.48.94L306.42,392c-.6-.34-1.19-.72-1.77-1.11l6.63-1.85A.74.74,0,0,1,312.17,389.62Z"/><ellipse cx="325.62" cy="360.3" fill="#ffcb48" rx="31.45" ry="34.37" transform="rotate(-15.63 325.542 360.242)"/><path fill="#ff9a2e" d="M327.08,392.81a28.6,28.6,0,0,1-15.17-4.46A33.08,33.08,0,0,1,297.65,369c-4.73-16.91,4.07-34.21,19.62-38.56a27.94,27.94,0,0,1,22.51,3.44,33.86,33.86,0,0,1,12.11,43.28,28,28,0,0,1-17.46,14.63A27.54,27.54,0,0,1,327.08,392.81Zm-2.47-60.23a24.43,24.43,0,0,0-6.5.89c-13.88,3.89-21.7,19.45-17.44,34.69a30,30,0,0,0,12.91,17.53,24.51,24.51,0,0,0,35.5-9.93,30.73,30.73,0,0,0-11-39.2A25.52,25.52,0,0,0,324.61,332.58Z"/><path fill="#ff9a2e" d="M339.65,349.27c-1-7.3-7.7-11.39-14.53-9.6-5.95,1.56-13.64,5.8-11.1,13a12.44,12.44,0,0,0,6.77,7.56c3.86,1.54,8.15,1.37,12,2.91,2.21.88,4.53,2.21,5.54,4.5,2,4.56-1.74,8.71-6.49,9.12-6,.5-12.76-3.22-12.53-9.8.05-1.32-4.36-.07-4.4,1.14-.32,9.29,10.34,12.1,17.84,10.5,6.31-1.34,14.88-8.45,8.27-14.92s-17.37-2-21.95-11.08c-2.77-5.49.54-10.73,6.78-11.25,4.87-.42,8.82,5.21,9.39,9.52.13,1,4.59-.23,4.4-1.63Z"/><path fill="#ff9a2e" d="M319.73,337.18q2.28,25,4.57,50c.1,1.12,4.55-.05,4.4-1.62q-2.28-25-4.57-50c-.1-1.12-4.55.06-4.4,1.62Z"/><path fill="#ff9a2e" d="M325.61,335.75q2.29,25,4.57,50c.11,1.11,4.55-.06,4.41-1.63q-2.29-25-4.58-50c-.1-1.12-4.54.05-4.4,1.62Z"/><path fill="#ffa9ba" d="M336.47,392.67a.71.71,0,0,0,.65.36l3.29-.37s1.81-.21,2.16-1.12c0,0-.09-.37-.59-.15,0,0,1.29-1.14,1.17-1.63s-1.79.51-1.79.51-2.52.6-2.64-.26c0,0,.83-.61.52-.85s-2,.86-2.22,1.49a5,5,0,0,1-.79.79C336,391.58,336.22,392.23,336.47,392.67Z"/><path fill="#ff97a6" d="M277.83,371.91s1.1,7.61,1.86,8.28,3,1.2,3.54-.93-2.44-8.2-2.44-8.2Z"/><path fill="#c95d77" d="M277.08,369.59s1.25,6.17,1.56,7.06c.23.69,4.45,1.24,4.41.28-.09-2.12-3-8.19-3-8.19Z"/><path fill="#fc9faf" d="M284.18,370.07a15.86,15.86,0,0,0-2.87-3.3,2.57,2.57,0,0,0-3.68.08c-1.53,1.64-3.12,3.54-3.3,4.32-.27,1.22.75,2.33,1.5,3.17a8.14,8.14,0,0,0,3.51,2.28,5.19,5.19,0,0,0,3.59-1.21C285.11,373.25,285.2,372.08,284.18,370.07Z"/><path fill="#295a6e" d="M279.55,379.85s5.68-.47,12.23,6.81,9.78,23.77,9.78,23.77-1.69,18.23-3.74,19.5-19.31-.51-19.31-.51,3.49-11.91,7.14-15.49c0,0-1.74-7.71-8.57-16.66S275.7,380.78,279.55,379.85Z"/><path fill="#295a6e" d="M277.18,384.86c-1.13,2.53,2,10,9.22,13.19,6.56,2.85,19.33,7.92,27.3,5,5.9-2.16-5.37-8.6-5.37-8.6s-11.68-2.83-15-4.93S279.27,380.14,277.18,384.86Z"/><path fill="#295a6e" d="M302.81,402.56c4.61,4.25,32,1.53,34.33-7.66.87-3.41-.95-4.88-.95-4.88L304,393.5S297.6,397.76,302.81,402.56Z"/><path fill="#205363" d="M279,384.93a19.76,19.76,0,0,1,4.35.62c1.42.33,2.82.74,4.21,1.2a31.45,31.45,0,0,1,7.88,3.79c-2.8-.85-5.52-1.76-8.26-2.68L283,386.43C281.67,386,280.34,385.36,279,384.93Z"/><path fill="#205363" d="M275.35,391.71c1.93,1.15,3.86,2.29,5.81,3.38s3.91,2.14,5.91,3.11,4,1.86,6.1,2.66a47.69,47.69,0,0,0,6.41,1.87,25.05,25.05,0,0,1-6.7-1,40.86,40.86,0,0,1-6.33-2.46,50.79,50.79,0,0,1-5.86-3.4A43.85,43.85,0,0,1,275.35,391.71Z"/><path fill="#3b2b5b" d="M269,371.5a3.29,3.29,0,0,1,1-3.71,4.27,4.27,0,0,1-.21-3.36c.55-1.48,1.64-1.8,2.85-2.54,1.67-1,.27-2.13,1.29-3.48a1.71,1.71,0,0,1,1.39-.74,2.46,2.46,0,0,1,3.49-2.34c2.12.74,4.56,6,3,8.9-2.17,4-10,5.66-5.46,9.94.9.85,1.55,1.07,2.26,1.73a.59.59,0,0,1-.39,1,17,17,0,0,1-6-1.89,8.4,8.4,0,0,1-1.2-1A5.74,5.74,0,0,1,269,371.5Z"/><path fill="#7f65c1" d="M278.23,376.91a10.58,10.58,0,0,1-1.94-.3c-.64-.15-1.28-.31-1.91-.51a11.7,11.7,0,0,1-1.84-.76,8.45,8.45,0,0,1-1.59-1.21l0,0a6.75,6.75,0,0,1-1.36-1.31,4.49,4.49,0,0,1-.85-1.69,3.4,3.4,0,0,1,1.17-3.49l-.05.21a4.51,4.51,0,0,1-.29-3.27,3.47,3.47,0,0,1,.85-1.44,5.71,5.71,0,0,1,1.37-.93,5.19,5.19,0,0,0,1.31-.85,1.87,1.87,0,0,0,.35-1.46,2,2,0,0,1,1.88-2.25,1.66,1.66,0,0,0-1.34.75,2.1,2.1,0,0,0-.38,1.5,4.49,4.49,0,0,1,0,.82,1.36,1.36,0,0,1-.35.78,5.13,5.13,0,0,1-1.35.94,5.92,5.92,0,0,0-1.28.91,3.2,3.2,0,0,0-.75,1.33,4.17,4.17,0,0,0,.29,3,.16.16,0,0,1-.05.21h0a3.14,3.14,0,0,0-1.06,3.14,5.28,5.28,0,0,0,2.07,2.84h0a7.82,7.82,0,0,0,1.49,1.21,10.49,10.49,0,0,0,1.78.79c.62.22,1.24.42,1.87.59A10.57,10.57,0,0,0,278.23,376.91Z"/><path fill="#3b2b5b" d="M167.35,437.48s15.41-6.93,3.93-14.38c0,0,2.66-10.26-7.18-14.1,0,0-6.4-2-7.77,5.08,0,0-6.32-1.28-6,6.06,0,0-5.64-7.95-14-3.08s-3.64,16.37-3.64,16.37-7.37-2.56-7.37,5.62c0,16.88,20.48,10.33,20.48,10.33Z"/><path fill="#7f65c1" d="M172.25,434.39a12.1,12.1,0,0,0,2.21-2.69,4.87,4.87,0,0,0,.73-3.21,5.76,5.76,0,0,0-1.53-2.87,13,13,0,0,0-2.66-2.1l-.28-.19.07-.36a14,14,0,0,0,.15-4.14,11.74,11.74,0,0,0-1.1-3.93,8.94,8.94,0,0,0-2.48-3.17,12.55,12.55,0,0,0-3.53-2.05h0a7.07,7.07,0,0,0-2.35-.16,4.73,4.73,0,0,0-2.16.71,4.48,4.48,0,0,0-1.55,1.68,10,10,0,0,0-.5,1.1c-.12.39-.21.79-.33,1.19l-.18.65-.62-.11a5.88,5.88,0,0,0-2.21.06,3.61,3.61,0,0,0-1.86,1,5,5,0,0,0-1,1.93c-.1.37-.13.77-.21,1.15l0,1.2-.06,1.62-.93-1.28a12.7,12.7,0,0,0-2.66-2.67,10.78,10.78,0,0,0-3.39-1.69,8.4,8.4,0,0,0-3.8-.25,12.81,12.81,0,0,0-3.71,1.21,11.45,11.45,0,0,1,3.64-1.57,8.75,8.75,0,0,1,4-.05,10.44,10.44,0,0,1,3.73,1.62,13.51,13.51,0,0,1,3,2.77l-1,.34v-1.33a12.48,12.48,0,0,1,.18-1.35,5.38,5.38,0,0,1,1.24-2.52,4.92,4.92,0,0,1,2.48-1.45,7.11,7.11,0,0,1,2.8-.11l-.8.54c.11-.46.21-.92.35-1.38a8.64,8.64,0,0,1,.58-1.33,5.85,5.85,0,0,1,2-2.21,6.13,6.13,0,0,1,2.81-1,8.08,8.08,0,0,1,2.92.27h.05a14.17,14.17,0,0,1,3.9,2.36,10.45,10.45,0,0,1,2.77,3.65,12.32,12.32,0,0,1,1.12,4.4,15.16,15.16,0,0,1-.39,4.49l-.21-.54a14.42,14.42,0,0,1,2.74,2.39,6,6,0,0,1,1.51,3.36,5.33,5.33,0,0,1-1.05,3.45A11,11,0,0,1,172.25,434.39Z"/><path fill="#30193b" d="M74.28,532.14c2.38.17,2-3,2.23-4.92-.28.52-.69,1.16-1,.38-.38-1.14-.16-3.7.6-4.49a4.91,4.91,0,0,0-2-.23C73.4,522.93,73.64,532.09,74.28,532.14Z"/><path fill="#ff97a6" d="M75.56,527.6c.26.78.81,1,.93-.23a9.5,9.5,0,0,1,.51-2.19c.19-.52,1-.75,1-.75l0-1s-1.59-.28-1.77-.35C75.4,523.9,75.18,526.46,75.56,527.6Z"/><path fill="#ff97a6" d="M121.24,462.12c-1.61,9.21-12.78,26.68-12.78,26.68L76.71,523.31l.41,1.67s31.09-18.05,39.81-23.54c7.69-4.84,25.39-31.38,27.66-34.27-.18-2.71,1.67-13.4-4.06-19.4C138.08,445.2,124,446.15,121.24,462.12Z"/><path fill="#30193b" d="M146.77,533.73c.33-2.46-2.78-2.23-4.57-2.66.48.33,1.07.79.3,1-1.12.31-3.56-.09-4.27-.93a5.5,5.5,0,0,0-.36,2.08C137.87,534,146.68,534.38,146.77,533.73Z"/><path fill="#ff97a6" d="M142.5,532.08c.77-.22,1-.77-.15-1a8.56,8.56,0,0,1-2.07-.68c-.48-.23-.65-1-.65-1l-.94,0s-.38,1.64-.46,1.82C138.94,532,141.38,532.39,142.5,532.08Z"/><path fill="#ff97a6" d="M138.22,478.7l22.35,13.56L139,528.62a1,1,0,0,0,.42,1.64l.17,0c.69.21,2.17-1.71,2.74-2.16,6.13-4.84,26.88-21.17,32.56-37,3.31-9.22-23.17-31.41-23.44-35.32-1.92-1.67-3.39-8.83-12.55-10.91-1.64-.38-10.79,5.47-12.14,8.9C122.91,463.63,129.66,473,138.22,478.7Z"/><path fill="#ff5e4d" d="M152,456.5a63.8,63.8,0,0,1-18.13-9.44s8.88-17.61,18.5-18.15c4.67-.27,9.61.49,13.83,4a47.91,47.91,0,0,1,5.54,5.18S163.84,447.2,160,450C155.8,452.93,151.26,456.05,152,456.5Z"/><path fill="#f24336" d="M152,457.23s.62-.28-1.87-1.11a54.34,54.34,0,0,1-5.4-2.52s8.46-5,13.6-11.86c3.9-5.21.83-13,2.89-11.95a28.34,28.34,0,0,1,5,3.17c4.22,3.56,6.5,5.73,6.5,5.73s-8.86,10.83-12.72,13.58C155.78,455.24,152.29,456.91,152,457.23Z"/><path fill="#ff97a6" d="M164.34,427.72s-1.85,4-2.41,4.16-2,0-2-1.34,2.75-4,2.75-4Z"/><path fill="#c95d77" d="M162.9,430.54a3.41,3.41,0,0,1-2.35-1.44,15.89,15.89,0,0,1,1.46-1.82l1.9,1.34C163.63,429.18,163.26,429.91,162.9,430.54Z"/><path fill="#ff97a6" d="M168.45,421.28c-1.6-2-6.33-.94-7.12-.32s-.77,2-.73,3,1.06,5.17,4.25,5.48C170.87,430,168.45,421.28,168.45,421.28Z"/><path fill="#6b54b2" d="M134.33,446.16s10.08,7.23,17.65,10.34c0,0,17.34,18.22,21.07,26.44a83.47,83.47,0,0,1-8.71,4c-.54.22-3.06,1.17-3.78,1.42-13.45,4.74-34.71,8.89-48.23-5.05l-.24-.53s7.13-12.43,8.66-18.56S123.1,449.19,134.33,446.16Z"/><path fill="#7f65c1" d="M137.87,474.87c5.19-13.91,7.51-21.66,7.51-21.66l-11-7a22.15,22.15,0,0,0-3.76.79c-6.45,2.55-8.39,11.43-8.38,11.42l-10.1,24.41s.5,3.42,8.87,6.92a71.79,71.79,0,0,0,6.89,2.2S134.64,483.52,137.87,474.87Z"/><ellipse cx="206.87" cy="493.86" fill="#ffcb48" rx="38.45" ry="39.65" transform="rotate(-18.05 206.893 493.863)"/><path fill="#ff9a2e" d="M207.44,530.2a35,35,0,0,1-16.39-4.12,37.19,37.19,0,0,1-16-48.94,34.66,34.66,0,0,1,47.59-15.51A36.72,36.72,0,0,1,240.5,482.9h0c6.22,19.09-3.8,39.54-22.34,45.59A34.67,34.67,0,0,1,207.44,530.2Zm-1.14-69.7a31.68,31.68,0,0,0-28.52,17.95,34.22,34.22,0,0,0,14.67,45,31.68,31.68,0,0,0,24.78,2.2c17-5.53,26.15-24.3,20.43-41.83h0a33.78,33.78,0,0,0-16.36-19.55A32.08,32.08,0,0,0,206.3,460.5Z"/><path fill="#ff9a2e" d="M216.34,478.51a14.64,14.64,0,0,0-9.74-8.73c-3.49-.89-6.85.46-9.82,2.23a22.63,22.63,0,0,0-8.16,7.66c-2.22,3.9-.57,7.95,2.29,11.05a14,14,0,0,0,10.89,4.68c4.93.05,10-1,14.7.92,8.08,3.28,5.85,13.23-2,15.23-6.58,1.67-15-.29-16.43-8-.23-1.25-4.12.86-3.91,2,2,11,15.67,10.89,23.54,6.69,3.66-1.95,7.09-5.19,7.82-9.45.8-4.72-2.27-8.25-6.57-9.64s-8.83-.73-13.28-.65c-5.75.11-11-2.34-13.44-7.93-2.36-5.35,2.64-11.2,8-12.2,5.18-1,10.71,4,12.33,8.57.31.87,4.27-1.19,3.81-2.48Z"/><path fill="#ff9a2e" d="M191.59,469.53q9,27.54,17.95,55.09c.34,1,4.28-1,3.81-2.48q-9-27.54-18-55.09c-.33-1-4.28,1-3.8,2.48Z"/><path fill="#ff9a2e" d="M197.83,466.41q9,27.55,17.95,55.09c.34,1,4.28-1,3.81-2.48q-9-27.54-18-55.09c-.33-1-4.28,1-3.8,2.48Z"/><path fill="#f24336" d="M203.83,454.08a14.06,14.06,0,0,1-6.69,3.15c-2.49.55-16.23,1.45-20.77-3.41-2.9-3.1-9.66-13.75-10.25-14.24s0-6.62,0-6.62,10,7.59,14,15.12C180.17,448.08,200.45,446.68,203.83,454.08Z"/><path fill="#ff97a6" d="M202,454.48c1.24-.82,2.78-2.54,4.86-1.78,2.72,1,2.33,2,1.59,1.88s-1.07-.2-1.93-.26c-.6,0-.56.23-1.07.2.56.29,1.86.69,1.4.84a11.46,11.46,0,0,1-4.61.09A.68.68,0,0,1,202,454.48Z"/><path fill="#ff5e4d" d="M184.77,460.55s-2.29,4-4.82,3.65-13.08-5.52-17.62-10.38c-2.9-3.1-12-15-12.33-15.68-1.79-4.33.39-7,1-7.61a.21.21,0,0,1,.3,0c1.32,1.24,11.07,10.54,14.82,17.56C166.13,448.08,181.21,450.66,184.77,460.55Z"/><path fill="#ff97a6" d="M183,461.63c.91-1.19,1.81-3.31,4-3.26,2.9.06,3.12,1.51,2.16,1.72s-1.12-.3-2-.08c-.57.15-.45.4-.94.53.62.09,2,0,1.6.35a11.57,11.57,0,0,1-4.34,1.57A.67.67,0,0,1,183,461.63Z"/><path fill="#aacbe8" d="M605.08,136.14v44.92c0,.37.82,1.13,1.18,1.13h51.85c.12,0-.65-1.21-1.1-1.21H605.16l1.18,1.13V137.19c0-.44-1.26-1.2-1.26-1.05Z"/><path fill="#aacbe8" d="M604,139.83l2.37-5.29-1.31-.9c.72,1.76,1.43,3.53,2.15,5.29a1.72,1.72,0,0,0,.81.83c.14.06.65.24.5-.13l-2.14-5.28c-.08-.19-1.12-1.31-1.31-.9q-1.17,2.64-2.36,5.29c-.21.47,1.16,1.38,1.29,1.09Z"/><path fill="#aacbe8" d="M655.75,179.26l4.91,3-.65-1.43-4.91,2.49c-.27.14.51,1.64.8,1.49q2.46-1.24,4.91-2.5c.31-.15-.47-1.33-.65-1.43l-4.91-3c-.35-.22.18,1.19.5,1.38Z"/><path fill="#aacbe8" d="M658,148.44c-2,.34-4,.72-6,1.12a1.87,1.87,0,0,0-1.23-1.36,1.35,1.35,0,0,0-1.25.33,1.46,1.46,0,0,0-1.6.71,2.93,2.93,0,0,0-.35,1.31,91.42,91.42,0,0,0-19.48,6.84,1.45,1.45,0,0,0-2-1,1.2,1.2,0,0,0-.79.91,1.27,1.27,0,0,0-.13.11,1.73,1.73,0,0,0-.28,1.66,64.67,64.67,0,0,0-10.88,7.52,1.35,1.35,0,0,0-1.9-.09,1.2,1.2,0,0,0-.37.46,2.06,2.06,0,0,0-.15,1.89,36.53,36.53,0,0,0-6.68,8.82c-.16.3.27.68.5.38a92.74,92.74,0,0,1,6.72-8v0a1.48,1.48,0,0,0,1.86.48,2,2,0,0,0,1-1.95,3,3,0,0,0-.28-1l0,0a62.57,62.57,0,0,1,10.61-7.43,1.62,1.62,0,0,0,1.39,1,1.71,1.71,0,0,0,1.51-1.45,3.8,3.8,0,0,0,0-1.14,90.85,90.85,0,0,1,19.31-6.82,4,4,0,0,0,.26.83,2.1,2.1,0,0,0,2.5,1.31,2.69,2.69,0,0,0,1.83-2.61,3.53,3.53,0,0,0,0-.55q3-.62,6-1.12C659.06,149.46,658.75,148.32,658,148.44Zm-9,3.42a2.44,2.44,0,0,1-.1-.41l.08,0a1.43,1.43,0,0,0,1.18,1.24A1.07,1.07,0,0,1,649,151.86Z"/><path fill="#aacbe8" d="M276.74,178.25a24.7,24.7,0,0,1,2.44,2.56,27.29,27.29,0,0,1,6.41,15.76,41.8,41.8,0,0,1,0,5.25,126.47,126.47,0,0,0-13.49,0c-4.05.15-8.72,0-12.67,1.15a243,243,0,0,1,17.21-24.1A.6.6,0,0,0,276.74,178.25Z"/><path fill="#aacbe8" d="M258.35,202.7c-1.25-10.3-2.76-20.64-3.53-31a42.59,42.59,0,0,0-8.71,2.67,28.1,28.1,0,0,0-6.67,5,27,27,0,0,0-7.92,17.74,28.58,28.58,0,0,0,12.31,24.58,110.11,110.11,0,0,1,6.76-9Q254.45,207.65,258.35,202.7Zm17.95-24.86A25.19,25.19,0,0,0,265,172.33a27.45,27.45,0,0,0-9.11-.78l-.37,0c1.64,9.79,2.61,19.71,3.76,29.56A247.63,247.63,0,0,1,275.82,178,.47.47,0,0,1,276.3,177.84Zm-12.9,36c-1.45-3.26-3.38-6.62-4.43-10.07-2.45,3.1-4.9,6.2-7.38,9.27a109.58,109.58,0,0,1-7.34,8.89,25.46,25.46,0,0,0,5.57,2.72,29,29,0,0,0,18.51,0C266.3,221.3,265,217.32,263.4,213.83ZM285.49,203c-4.32,0-8.64-.13-13,0-2.32.08-4.63.19-7,.33a50.82,50.82,0,0,1-5.79.33c2,3.12,3.37,7,4.91,10.3s3.51,6.74,4.72,10.23A24.27,24.27,0,0,0,285.49,203Zm.11-1.15a41.8,41.8,0,0,0,0-5.25,27.29,27.29,0,0,0-6.41-15.76,24.7,24.7,0,0,0-2.44-2.56.6.6,0,0,1-.09.6A243,243,0,0,0,259.44,203c3.95-1.15,8.62-1,12.67-1.15A126.47,126.47,0,0,1,285.6,201.82Zm-3.12-18.54a29.09,29.09,0,0,1,4.39,18.12c-.38,6.3-2.27,12.11-6.55,16.86-8.74,9.72-24,11.85-35.34,5.59-10.77-5.94-16.56-19.21-14.06-31.17,2.29-10.89,12.3-21.11,23.66-22.21a22.77,22.77,0,0,1,2.5-.32A32.79,32.79,0,0,1,268,171.74C274.18,173.56,279.05,177.91,282.48,183.28Z"/><path fill="#aacbe8" d="M235.74,195.43c.19-2,2.71-1.55,2.79.33a3.18,3.18,0,0,1-.58,1.79,4.77,4.77,0,0,1-3.22,2.32l.09.71a7.92,7.92,0,0,1,4.47.26c.57.18.82-.73.24-.9a9.26,9.26,0,0,0-4.9-.06c-.39.09-.32.76.1.71,2.37-.26,5.29-3.14,4.31-5.7a2.16,2.16,0,0,0-2.61-1.41,1.49,1.49,0,0,0-1,2c.07.14.26.05.27-.08Z"/><path fill="#aacbe8" d="M243.83,194.39c-3.62-.14-1.37,7.69,1.59,4.73,1.09-1.09,1.2-3.78.46-5.09-.53-.92-2.9-1.61-2.86,0a.33.33,0,0,0,.49.28c1-.49,1.67-.09,1.8,1.06a5.15,5.15,0,0,1-.24,2.62c-.68,1.4-1.84.65-2.12-.49a2.2,2.2,0,0,1,1-2.76c.19-.09.08-.36-.1-.37Z"/><path fill="#aacbe8" d="M263.42,178.44c-2,.09-1.81,2.82-1.58,4.17a2.56,2.56,0,0,0,1.43,2.17,1.48,1.48,0,0,0,1.71-.49c1-1.31,1.24-4.38.11-5.7-.93-1.07-2.94-.42-2.19,1.07.17.33.64.09.57-.24.65-.37,1-.32,1.15.17a2,2,0,0,1,.17.54,5.17,5.17,0,0,1,.13,1.3c0,.5-.26,3.4-1.58,2.54-.69-.46-.82-1.57-.92-2.32a2.94,2.94,0,0,1,1-3.11s0-.11,0-.1Z"/><path fill="#aacbe8" d="M245.45,220.33a45.31,45.31,0,0,0,6.84,5.84c.11.08.23-.09.14-.18a45.81,45.81,0,0,0-6.65-6.1c-.26-.19-.55.22-.33.44Z"/><path fill="#aacbe8" d="M247.12,218.36c.92,1.69,2.73,3,4.15,4.3A21.86,21.86,0,0,0,256,226.4c.16.08.4-.1.27-.27a33,33,0,0,0-4.37-4.06c-1.43-1.29-2.81-3-4.51-3.93a.17.17,0,0,0-.23.22Z"/><path fill="#aacbe8" d="M248.54,215.41a42.85,42.85,0,0,0,6,6.5c2,2,4.13,4.4,6.58,5.93.22.13.53-.15.37-.37-1.75-2.31-4.2-4.21-6.28-6.23a64.56,64.56,0,0,0-6.39-6.1c-.16-.12-.37.11-.27.27Z"/><path fill="#aacbe8" d="M251.12,213.14a81.59,81.59,0,0,0,7,6.66c2.17,1.89,4.48,4.2,7.15,5.38a.17.17,0,0,0,.2-.26c-1.9-2.35-4.67-4.11-6.94-6.1s-4.52-4.21-6.81-6.29a.43.43,0,0,0-.6.61Z"/><path fill="#aacbe8" d="M253.88,210.48c1.86,2.33,4.48,4.18,6.74,6.11,2.07,1.77,4.11,3.89,6.51,5.18.15.08.38-.09.26-.25-1.74-2.27-4.27-4-6.44-5.87s-4.33-4.06-6.83-5.48a.2.2,0,0,0-.24.31Z"/><path fill="#aacbe8" d="M255.4,207.61c1.13,1.87,3.18,3.32,4.78,4.78a48,48,0,0,0,5.19,4.37c.23.15.42-.17.28-.36a48.56,48.56,0,0,0-5-5c-1.52-1.39-3.05-3.18-4.91-4.09a.21.21,0,0,0-.29.29Z"/><path fill="#d5eaf5" d="M272.39,131.44l-.7,0a.59.59,0,0,0,.14-.4,10.31,10.31,0,0,0-10.46-10.3c-.31-4.17-1.19-9.13-5.09-11.4-2.53-1.47-5.94-1.51-8.09.4-.44-5.52-1.22-11.21-4.79-15.63A12.36,12.36,0,0,0,229.74,90c-11.24,3.6-13.1,16.14-15.18,26.54a14.71,14.71,0,0,0-26-6.12c-.7-3.31-2.91-6.52-6.48-6.94a6.46,6.46,0,0,0-6,2.7c-.58-7.37.22-15-2.34-22-1.95-5.33-5.91-10.61-11.66-12-6.24-1.56-12.07,2.21-16,6.79a41.49,41.49,0,0,0-8.65,18.65,44.08,44.08,0,0,0,1.21,22c-7.29-2.69-15.16,4.37-12,12.12a.37.37,0,0,0,.25.63c9.4.6,18.94.21,28.36.22h85.05c10.66,0,21.4.37,32-.2A.42.42,0,0,0,272.39,131.44Z"/><path fill="#d5eaf5" d="M566.9,93.83a12.87,12.87,0,0,0-12.83-13.34,7.27,7.27,0,0,0-10.29-7.38c2.14-9.72-5.11-19-14.72-20.9-10.84-2.13-21.08,4.16-26.69,13.17a43.75,43.75,0,0,0-6,18.48,12.7,12.7,0,0,0-13-1.46,12.11,12.11,0,0,0-6.68,12.22.25.25,0,0,0,.27.23l0,.15c-.5,0-1,.12-1.47.2a0,0,0,0,0,0,.09c3.47.58,7.15.36,10.66.37,3.82,0,7.64,0,11.46.06,7.64,0,15.28,0,22.93,0,15.28,0,30.59.27,45.86-.33a.19.19,0,0,0,0-.37h-.22l0-.6A.64.64,0,0,0,566.9,93.83Z"/><path fill="#ff9a2e" d="M489.27,525.78c0,6.21-17.09,11.25-38.17,11.25s-38.17-5-38.17-11.25c0-1-.63-5.5.19-6.42,4.32-4.81,20.28-4.82,38-4.82,17.89,0,33.7-.32,37.84,4.57C489.67,520,489.27,524.84,489.27,525.78Z"/><path fill="none" d="M488.94,519.11c-4.14-4.89-19.95-4.57-37.84-4.57-17.7,0-33.66,0-38,4.82-.82.92-.19,5.43-.19,6.42,0,1.49,1,2.91,2.77,4.21v-7.63h1.2v8.42a30.56,30.56,0,0,0,6.23,2.65v-7.65h1.2v8c1.89.55,4,1,6.22,1.46V527h1.2v8.5q3,.51,6.23.87v-8.07h1.2v8.19c2.22.21,4.54.37,6.93.46v-8.65h1.19V537c1.25,0,2.52.06,3.8.06,1,0,2,0,2.93,0v-8h1.2V537q3-.09,5.9-.33V529h1.2v7.51c2.48-.22,4.85-.52,7.09-.88V528h1.2v7.48a68,68,0,0,0,8-1.87v-7.8h1.2v7.42a26.89,26.89,0,0,0,6.05-2.76v-8.08H487v7.22a5.1,5.1,0,0,0,2.24-3.8C489.27,524.84,489.67,520,488.94,519.11Z"/><path fill="#ef7f18" d="M415.7,522.36V530c.37.27.77.53,1.2.79v-8.42Z"/><path fill="#ef7f18" d="M423.13,525.78v7.65l1.2.37v-8Z"/><path fill="#ef7f18" d="M430.55,527v8.28l1.2.22V527Z"/><path fill="#ef7f18" d="M438,528.28v8.07l1.2.12v-8.19Z"/><path fill="#ef7f18" d="M446.11,528.28v8.65l1.19,0v-8.69Z"/><path fill="#ef7f18" d="M454,529v8l1.2,0V529Z"/><path fill="#ef7f18" d="M461.13,529v7.61l1.2-.1V529Z"/><path fill="#ef7f18" d="M469.42,528v7.68l1.2-.2V528Z"/><path fill="#ef7f18" d="M478.58,525.78v7.8l1.2-.38v-7.42Z"/><path fill="#ef7f18" d="M485.83,522.36v8.08a13.27,13.27,0,0,0,1.2-.86v-7.22Z"/><path fill="#ffcb48" d="M489.27,520.15c0,4.32-11.21,10.88-38.23,10.82-30.58-.07-38.11-6.5-38.11-10.82s17.09-7.83,38.17-7.83S489.27,515.82,489.27,520.15Z"/><path fill="#ff9a2e" d="M497.61,515.37c0,6.21-17.09,11.24-38.17,11.24s-38.17-5-38.17-11.24c0-1-.63-5.51.19-6.43,4.32-4.81,20.28-4.82,38-4.82,17.89,0,33.71-.32,37.84,4.58C498,509.57,497.61,514.43,497.61,515.37Z"/><path fill="none" d="M497.28,508.7c-4.13-4.9-19.95-4.58-37.84-4.58-17.7,0-33.66,0-38,4.82-.82.92-.19,5.43-.19,6.43,0,1.49,1,2.91,2.78,4.21V512h1.2v8.41a30.12,30.12,0,0,0,6.22,2.66v-7.65h1.2v8c1.89.55,4,1,6.23,1.46v-8.28h1.2v8.5c2,.34,4,.64,6.23.87v-8.07h1.19v8.19c2.23.22,4.55.37,6.93.46v-8.65h1.2v8.7c1.25,0,2.51.05,3.79.05q1.49,0,2.94,0v-8h1.2v7.95c2-.07,4-.18,5.89-.33V518.6h1.2v7.52c2.48-.23,4.86-.52,7.1-.89v-7.67H479V525a66.3,66.3,0,0,0,8-1.86v-7.8h1.2v7.41a27.33,27.33,0,0,0,6.05-2.75V512h1.2v7.21a5.09,5.09,0,0,0,2.23-3.79C497.61,514.43,498,509.57,497.28,508.7Z"/><path fill="#ef7f18" d="M424.05,512v7.63a13.13,13.13,0,0,0,1.2.78V512Z"/><path fill="#ef7f18" d="M431.47,515.37V523l1.2.36v-8Z"/><path fill="#ef7f18" d="M438.9,516.56v8.28l1.2.22v-8.5Z"/><path fill="#ef7f18" d="M446.33,517.86v8.07l1.19.12v-8.19Z"/><path fill="#ef7f18" d="M454.45,517.86v8.65l1.2,0v-8.7Z"/><path fill="#ef7f18" d="M462.38,518.6v8l1.2,0V518.6Z"/><path fill="#ef7f18" d="M469.47,518.6v7.62l1.2-.1V518.6Z"/><path fill="#ef7f18" d="M477.77,517.56v7.67L479,525v-7.47Z"/><path fill="#ef7f18" d="M486.93,515.37v7.8l1.2-.39v-7.41Z"/><path fill="#ef7f18" d="M494.18,512V520a11.6,11.6,0,0,0,1.2-.87V512Z"/><path fill="#ffcb48" d="M497.61,509.73c0,4.32-11.21,10.88-38.23,10.82-30.58-.06-38.11-6.5-38.11-10.82s17.09-7.83,38.17-7.83S497.61,505.41,497.61,509.73Z"/><path fill="#ff9a2e" d="M489.27,502.74c0,6.21-17.09,11.24-38.17,11.24s-38.17-5-38.17-11.24c0-1-.63-5.51.19-6.43,4.32-4.81,20.28-4.82,38-4.82,17.89,0,33.7-.32,37.84,4.58C489.67,496.94,489.27,501.8,489.27,502.74Z"/><path fill="none" d="M488.94,496.07c-4.14-4.9-19.95-4.58-37.84-4.58-17.7,0-33.66,0-38,4.82-.82.92-.19,5.43-.19,6.43,0,1.49,1,2.9,2.77,4.2v-7.62h1.2v8.41a30.54,30.54,0,0,0,6.23,2.66v-7.66h1.2v8c1.89.55,4,1,6.22,1.46v-8.28h1.2v8.5c2,.34,4.05.64,6.23.87v-8.07h1.2v8.19c2.22.22,4.54.37,6.93.46v-8.65h1.19v8.7c1.25,0,2.52.05,3.8.05,1,0,2,0,2.93,0v-8h1.2v7.95q3-.1,5.9-.33V506h1.2v7.52c2.48-.23,4.85-.53,7.09-.89v-7.67h1.2v7.47a68.08,68.08,0,0,0,8-1.86v-7.81h1.2v7.42a27.36,27.36,0,0,0,6.05-2.75v-8.08H487v7.21a5.08,5.08,0,0,0,2.24-3.79C489.27,501.8,489.67,496.94,488.94,496.07Z"/><path fill="#ef7f18" d="M415.7,499.32v7.62c.37.27.77.53,1.2.79v-8.41Z"/><path fill="#ef7f18" d="M423.13,502.73v7.66l1.2.36v-8Z"/><path fill="#ef7f18" d="M430.55,503.93v8.28l1.2.22v-8.5Z"/><path fill="#ef7f18" d="M438,505.23v8.07l1.2.12v-8.19Z"/><path fill="#ef7f18" d="M446.11,505.23v8.65l1.19,0v-8.7Z"/><path fill="#ef7f18" d="M454,506v8l1.2,0V506Z"/><path fill="#ef7f18" d="M461.13,506v7.62l1.2-.1V506Z"/><path fill="#ef7f18" d="M469.42,504.93v7.67l1.2-.2v-7.47Z"/><path fill="#ef7f18" d="M478.58,502.73v7.81l1.2-.39v-7.42Z"/><path fill="#ef7f18" d="M485.83,499.32v8.08a13.3,13.3,0,0,0,1.2-.87v-7.21Z"/><path fill="#ffcb48" d="M489.27,497.1c0,4.32-11.21,10.88-38.23,10.82-30.58-.06-38.11-6.5-38.11-10.82s17.09-7.83,38.17-7.83S489.27,492.78,489.27,497.1Z"/><path fill="#ff9a2e" d="M486.08,492.32c0,6.21-17.09,11.25-38.17,11.25s-38.17-5-38.17-11.25c0-1-.63-5.5.19-6.42,4.32-4.82,20.28-4.82,38-4.82,17.89,0,33.71-.32,37.84,4.57C486.49,486.52,486.08,491.38,486.08,492.32Z"/><path fill="none" d="M485.75,485.65c-4.13-4.89-19.95-4.57-37.84-4.57-17.7,0-33.66,0-38,4.82-.82.92-.19,5.43-.19,6.42,0,1.49,1,2.91,2.78,4.21V488.9h1.19v8.41a30.47,30.47,0,0,0,6.23,2.66v-7.65h1.2v8c1.89.55,4,1,6.23,1.47v-8.29h1.2V502q3,.53,6.23.87v-8.06H436V503c2.23.22,4.55.37,6.93.47v-8.65h1.2v8.69c1.25,0,2.51.06,3.79.06,1,0,2,0,2.94,0v-8h1.2v7.95c2-.06,4-.18,5.89-.33v-7.62h1.2v7.52c2.48-.22,4.86-.52,7.1-.88v-7.68h1.19V502a66.3,66.3,0,0,0,8-1.86v-7.8h1.2v7.42a27.78,27.78,0,0,0,6-2.76V488.9h1.2v7.22a5.13,5.13,0,0,0,2.23-3.8C486.08,491.38,486.49,486.52,485.75,485.65Z"/><path fill="#ef7f18" d="M412.52,488.9v7.63a12.25,12.25,0,0,0,1.19.78V488.9Z"/><path fill="#ef7f18" d="M419.94,492.32V500l1.2.36v-8Z"/><path fill="#ef7f18" d="M427.37,493.51v8.29l1.2.21v-8.5Z"/><path fill="#ef7f18" d="M434.8,494.82v8.06c.39.05.79.08,1.19.12v-8.18Z"/><path fill="#ef7f18" d="M442.92,494.82v8.65l1.2,0v-8.69Z"/><path fill="#ef7f18" d="M450.85,495.55v8l1.2,0v-7.95Z"/><path fill="#ef7f18" d="M457.94,495.55v7.62l1.2-.1v-7.52Z"/><path fill="#ef7f18" d="M466.24,494.51v7.68l1.19-.21v-7.47Z"/><path fill="#ef7f18" d="M475.4,492.32v7.8l1.2-.38v-7.42Z"/><path fill="#ef7f18" d="M482.65,488.9V497a13.27,13.27,0,0,0,1.2-.86V488.9Z"/><path fill="#ffcb48" d="M486.08,486.68c0,4.32-11.21,10.88-38.23,10.82-30.58-.06-38.11-6.5-38.11-10.82s17.09-7.82,38.17-7.82S486.08,482.36,486.08,486.68Z"/><path fill="#ff9a2e" d="M489.27,479.69c0,6.21-17.09,11.24-38.17,11.24s-38.17-5-38.17-11.24c0-1-.63-5.51.19-6.42,4.32-4.82,20.28-4.82,38-4.82,17.89,0,33.7-.32,37.84,4.57C489.67,473.89,489.27,478.75,489.27,479.69Z"/><path fill="none" d="M488.94,473c-4.14-4.89-19.95-4.57-37.84-4.57-17.7,0-33.66,0-38,4.82-.82.91-.19,5.42-.19,6.42,0,1.49,1,2.91,2.77,4.21v-7.63h1.2v8.41a30,30,0,0,0,6.23,2.66v-7.65h1.2v8c1.89.55,4,1,6.22,1.46v-8.28h1.2v8.5c2,.34,4.05.64,6.23.87v-8.06h1.2v8.18c2.22.22,4.54.37,6.93.47v-8.65h1.19v8.69c1.25,0,2.52.05,3.8.05,1,0,2,0,2.93,0v-8h1.2v7.95q3-.11,5.9-.33v-7.62h1.2v7.52c2.48-.23,4.85-.52,7.09-.88v-7.68h1.2v7.47a66.11,66.11,0,0,0,8-1.86v-7.8h1.2v7.42a27.34,27.34,0,0,0,6.05-2.76v-8.08H487v7.22a5.11,5.11,0,0,0,2.24-3.8C489.27,478.75,489.67,473.89,488.94,473Z"/><path fill="#ef7f18" d="M415.7,476.27v7.63c.37.26.77.53,1.2.78v-8.41Z"/><path fill="#ef7f18" d="M423.13,479.69v7.65l1.2.36v-8Z"/><path fill="#ef7f18" d="M430.55,480.88v8.28l1.2.22v-8.5Z"/><path fill="#ef7f18" d="M438,482.19v8.06l1.2.12v-8.18Z"/><path fill="#ef7f18" d="M446.11,482.19v8.65l1.19,0v-8.69Z"/><path fill="#ef7f18" d="M454,482.92v8l1.2,0v-7.95Z"/><path fill="#ef7f18" d="M461.13,482.92v7.62l1.2-.1v-7.52Z"/><path fill="#ef7f18" d="M469.42,481.88v7.68l1.2-.21v-7.47Z"/><path fill="#ef7f18" d="M478.58,479.69v7.8l1.2-.38v-7.42Z"/><path fill="#ef7f18" d="M485.83,476.27v8.08a13.27,13.27,0,0,0,1.2-.86v-7.22Z"/><path fill="#ffcb48" d="M489.27,474.05c0,4.32-11.21,10.88-38.23,10.82-30.58-.06-38.11-6.5-38.11-10.82s17.09-7.82,38.17-7.82S489.27,469.73,489.27,474.05Z"/><path fill="#ff9a2e" d="M492.86,467.34c0,6.21-17.09,11.24-38.17,11.24s-38.17-5-38.17-11.24c0-1-.63-5.51.19-6.43,4.32-4.81,20.28-4.82,38-4.82,17.89,0,33.7-.32,37.84,4.57C493.27,461.54,492.86,466.4,492.86,467.34Z"/><path fill="none" d="M492.53,460.66c-4.14-4.89-19.95-4.57-37.84-4.57-17.7,0-33.66,0-38,4.82-.82.92-.19,5.43-.19,6.43,0,1.48,1,2.9,2.77,4.2v-7.62h1.2v8.41a30.25,30.25,0,0,0,6.23,2.65v-7.65h1.2v8c1.89.55,4,1,6.23,1.46v-8.28h1.19V477q3,.51,6.23.87v-8.07h1.2V478c2.23.21,4.54.37,6.93.46v-8.65h1.2v8.69c1.25,0,2.51.06,3.79.06,1,0,2,0,2.93,0v-8h1.2v7.94q3-.09,5.9-.32v-7.62h1.2v7.51c2.48-.22,4.85-.52,7.09-.88v-7.67h1.2V477a68,68,0,0,0,8-1.87v-7.8h1.2v7.42a27.67,27.67,0,0,0,6.06-2.75v-8.08h1.2v7.21a5.09,5.09,0,0,0,2.23-3.79C492.86,466.4,493.27,461.54,492.53,460.66Z"/><path fill="#ef7f18" d="M419.29,463.92v7.62c.37.27.77.53,1.2.79v-8.41Z"/><path fill="#ef7f18" d="M426.72,467.33V475l1.2.37v-8Z"/><path fill="#ef7f18" d="M434.15,468.53v8.28l1.19.22v-8.5Z"/><path fill="#ef7f18" d="M441.57,469.83v8.07l1.2.12v-8.19Z"/><path fill="#ef7f18" d="M449.7,469.83v8.65l1.2,0v-8.69Z"/><path fill="#ef7f18" d="M457.62,470.57v8c.4,0,.81,0,1.2,0v-7.94Z"/><path fill="#ef7f18" d="M464.72,470.57v7.62l1.2-.11v-7.51Z"/><path fill="#ef7f18" d="M473,469.53v7.67l1.2-.2v-7.47Z"/><path fill="#ef7f18" d="M482.17,467.33v7.8l1.2-.38v-7.42Z"/><path fill="#ef7f18" d="M489.43,463.92V472c.43-.29.84-.57,1.2-.87v-7.21Z"/><path fill="#ffcb48" d="M492.86,461.7c0,4.32-11.21,10.88-38.23,10.82-30.58-.07-38.11-6.5-38.11-10.82s17.09-7.83,38.17-7.83S492.86,457.38,492.86,461.7Z"/><path fill="#ff9a2e" d="M493.28,457.09c0,6.21-17.09,11.24-38.17,11.24s-38.17-5-38.17-11.24c0-1-.63-5.51.19-6.42,4.32-4.82,20.28-4.82,38-4.82,17.89,0,33.7-.32,37.84,4.57C493.69,451.29,493.28,456.15,493.28,457.09Z"/><path fill="none" d="M493,450.42c-4.14-4.89-19.95-4.57-37.84-4.57-17.7,0-33.66,0-38,4.82-.82.91-.19,5.42-.19,6.42,0,1.49,1,2.91,2.77,4.21v-7.63h1.2v8.41a30.23,30.23,0,0,0,6.23,2.66v-7.65h1.2v8c1.89.55,4,1,6.23,1.46v-8.28h1.19v8.5c2,.34,4.06.64,6.23.87v-8.06h1.2v8.18c2.23.22,4.54.37,6.93.47v-8.65h1.2v8.69c1.24,0,2.51.05,3.79.05,1,0,2,0,2.93,0v-8h1.2v7.95q3-.11,5.9-.33v-7.62h1.2v7.52c2.48-.23,4.85-.52,7.09-.88v-7.68h1.2v7.47a66.11,66.11,0,0,0,8-1.86v-7.8h1.2v7.41a27.21,27.21,0,0,0,6.06-2.75v-8.08h1.2v7.22a5.13,5.13,0,0,0,2.23-3.8C493.28,456.15,493.69,451.29,493,450.42Z"/><path fill="#ef7f18" d="M419.71,453.67v7.63c.37.26.77.53,1.2.78v-8.41Z"/><path fill="#ef7f18" d="M427.14,457.09v7.65l1.2.36v-8Z"/><path fill="#ef7f18" d="M434.57,458.28v8.28l1.19.22v-8.5Z"/><path fill="#ef7f18" d="M442,459.59v8.06l1.2.12v-8.18Z"/><path fill="#ef7f18" d="M450.12,459.59v8.65l1.2,0v-8.69Z"/><path fill="#ef7f18" d="M458,460.32v8l1.2,0v-7.95Z"/><path fill="#ef7f18" d="M465.14,460.32v7.62l1.2-.1v-7.52Z"/><path fill="#ef7f18" d="M473.43,459.28V467l1.2-.21v-7.47Z"/><path fill="#ef7f18" d="M482.59,457.09v7.8c.41-.13.81-.25,1.2-.39v-7.41Z"/><path fill="#ef7f18" d="M489.85,453.67v8.08c.43-.28.84-.57,1.2-.86v-7.22Z"/><path fill="#ffcb48" d="M493.28,451.45c0,4.32-11.21,10.88-38.23,10.82-30.58-.06-38.11-6.5-38.11-10.82s17.09-7.82,38.17-7.82S493.28,447.13,493.28,451.45Z"/><path fill="#ff9a2e" d="M497.67,444.46c0,6.21-17.08,11.24-38.17,11.24s-38.17-5-38.17-11.24c0-1-.63-5.5.2-6.42,4.31-4.82,20.27-4.82,38-4.82,17.89,0,33.71-.32,37.84,4.57C498.08,438.66,497.67,443.52,497.67,444.46Z"/><path fill="none" d="M497.34,437.79c-4.13-4.89-19.95-4.57-37.84-4.57-17.7,0-33.66,0-38,4.82-.83.92-.2,5.43-.2,6.42,0,1.49,1,2.91,2.78,4.21V441h1.2v8.41a30.12,30.12,0,0,0,6.22,2.66v-7.65h1.2v8c1.89.55,4,1,6.23,1.46v-8.28h1.2v8.5c2,.34,4,.64,6.23.87V447h1.19v8.18c2.23.22,4.55.37,6.93.47V447h1.2v8.69c1.25,0,2.51.05,3.79.05q1.49,0,2.94,0v-8h1.2v7.95c2-.07,4-.18,5.89-.33v-7.62h1.2v7.52c2.48-.23,4.86-.52,7.1-.88v-7.68H479v7.47a66.57,66.57,0,0,0,8-1.86v-7.8h1.2v7.42a27.56,27.56,0,0,0,6.05-2.76V441h1.2v7.22a5.13,5.13,0,0,0,2.23-3.8C497.67,443.52,498.08,438.66,497.34,437.79Z"/><path fill="#ef7f18" d="M424.11,441v7.63a13.13,13.13,0,0,0,1.2.78V441Z"/><path fill="#ef7f18" d="M431.53,444.46v7.65l1.2.36v-8Z"/><path fill="#ef7f18" d="M439,445.65v8.28l1.2.22v-8.5Z"/><path fill="#ef7f18" d="M446.39,447V455c.39.05.79.08,1.19.12V447Z"/><path fill="#ef7f18" d="M454.51,447v8.65l1.2,0V447Z"/><path fill="#ef7f18" d="M462.44,447.69v8l1.2,0v-7.95Z"/><path fill="#ef7f18" d="M469.53,447.69v7.62l1.2-.1v-7.52Z"/><path fill="#ef7f18" d="M477.83,446.65v7.68l1.2-.21v-7.47Z"/><path fill="#ef7f18" d="M487,444.46v7.8l1.2-.38v-7.42Z"/><path fill="#ef7f18" d="M494.24,441v8.08a13.27,13.27,0,0,0,1.2-.86V441Z"/><path fill="#ffcb48" d="M497.67,438.82c0,4.32-11.21,10.88-38.23,10.82-30.58-.06-38.11-6.5-38.11-10.82S438.42,431,459.5,431,497.67,434.5,497.67,438.82Z"/></svg>